<svg xmlns="http://www.w3.org/2000/svg" viewBox="0 0 138.26 42.5"><defs><style>.cls-1{fill:#ed1c24;}.cls-1,.cls-2{fill-rule:evenodd;}.cls-2{fill:#fff;}.cls-3{fill:#ffffff;}</style></defs><title>remondis_logo</title><g id="Warstwa_2"><g id="Page_1"><g id="Warstwa_1-2"><polygon class="cls-1" points="0.17 0 138.25 0 138.25 26.77 0.17 26.77 0.17 0 0.17 0"/><path class="cls-2" d="M128.43,6.61a3.45,3.45,0,0,1,6.89,0,3.45,3.45,0,0,1-6.89,0Zm.89,0a2.55,2.55,0,0,1,5.1,0,2.55,2.55,0,0,1-5.1,0Zm1.47-1.55h1.3a1.55,1.55,0,0,1,.87.21.69.69,0,0,1,.3.6.68.68,0,0,1-.33.61,1.21,1.21,0,0,1-.38.14.89.89,0,0,1,.3.09.46.46,0,0,1,.27.41c0,.2,0,.38.08.54v0c0,.12,0,.21.06.29a1.18,1.18,0,0,0,.07.2h-.7a.61.61,0,0,1,0-.17,3.15,3.15,0,0,1,0-.32l0-.28a.76.76,0,0,0-.12-.41.57.57,0,0,0-.37-.09h-.56V8.19h-.67V5.06Zm.67,1.37h.41a1.12,1.12,0,0,0,.54-.11A.37.37,0,0,0,132.6,6a.38.38,0,0,0-.16-.33.83.83,0,0,0-.48-.11h-.5v.88Z"/><path class="cls-2" d="M8.18,6.73H10c1.34,0,2.15.69,2.15,2.55,0,1.26-.48,2.87-2.15,2.87H8.18V6.73Zm0,8.42H9.26c3.21,0,3,2,3,4.28a8.6,8.6,0,0,0,.44,3.77h4.1c-.38-.81-.46-4.47-.46-5.71,0-3.52-2.73-3.72-3.64-3.84v0c2.72-.45,3.72-2.31,3.72-4.77,0-3.32-1.83-5.1-4.7-5.1H4V23.2H8.18v-8Z"/><polygon class="cls-2" points="30.52 23.2 30.52 20.2 23.54 20.2 23.54 14.52 29.77 14.52 29.77 11.53 23.54 11.53 23.54 6.73 30.29 6.73 30.29 3.74 19.36 3.74 19.36 23.2 30.52 23.2 30.52 23.2"/><polygon class="cls-2" points="37.28 23.2 37.28 8.19 37.35 8.19 41.01 23.2 45.01 23.2 48.86 8.19 48.92 8.19 48.92 23.2 53 23.2 53 3.74 46.49 3.74 43.16 16.97 43.09 16.97 39.95 3.74 33.2 3.74 33.2 23.2 37.28 23.2 37.28 23.2"/><path class="cls-2" d="M62.58,20.57c-2.35,0-2.67-2.15-2.67-7.14s.32-7.14,2.67-7.14,2.66,2.14,2.66,7.14-.31,7.14-2.66,7.14Zm0,2.91c6.91,0,6.91-5,6.91-10s0-10-6.91-10-6.91,4.89-6.91,10.05,0,10.05,6.91,10.05Z"/><polygon class="cls-2" points="76.09 23.2 76.09 8.96 76.13 8.96 81.61 23.2 87.13 23.2 87.13 3.74 83.21 3.74 83.21 17.21 83.17 17.21 77.84 3.74 72.18 3.74 72.18 23.2 76.09 23.2 76.09 23.2"/><path class="cls-2" d="M94.6,6.73h2.16c2.92,0,2.92,3.16,2.92,6.74,0,4.87-.5,6.73-3.06,6.73h-2V6.73ZM90.39,23.2h6.83c7.16,0,6.71-6.84,6.71-9.83,0-6.07-1.05-9.63-6.54-9.63h-7V23.2Z"/><polygon class="cls-2" points="110.82 23.2 110.82 3.74 106.61 3.74 106.61 23.2 110.82 23.2 110.82 23.2"/><path class="cls-2" d="M125.56,17.9c0-6.13-7.85-5.81-7.85-9.51a1.91,1.91,0,0,1,2.16-2.06c1.69,0,1.94,1.48,1.94,2.93h3.5c.29-4.06-1.17-5.84-5.25-5.84-5.1,0-6.6,2.42-6.6,5.46,0,5.8,8.43,6,8.43,9.52a2,2,0,0,1-2.1,2.21c-2.31,0-2.4-1.56-2.4-3.42h-4.18c-.23,3.38.75,6.33,5.93,6.33,3.19,0,6.42-.59,6.42-5.62Z"/><path class="cls-3" d="M0,42.2V29.88H6.7v2.39H2.87v2.26H6.41V37H2.87V39.7H6.7v2.5Z"/><path class="cls-3" d="M8.49,42.2V29.88h2.88v9.83h3.46V42.2Z"/><path class="cls-3" d="M16.11,42.2V29.88h6.7v2.39H19v2.26h3.54V37H19V39.7h3.83v2.5Z"/><path class="cls-3" d="M28.48,42.5A3.79,3.79,0,0,1,25,40.89c-.6-.93-.69-2.52-.69-4.85s.09-3.92.69-4.85a3.75,3.75,0,0,1,3.39-1.61c2.71,0,4,1.51,4,4.5v.11h-2.8c0-1.59-.3-2.28-1.2-2.28-1.19,0-1.21,1.18-1.21,3.9V36c0,2.89,0,4.15,1.21,4.15.95,0,1.17-.67,1.17-2.21v-.55h2.83c0,.22,0,.41,0,.63C32.5,41,31.22,42.5,28.48,42.5Z"/><path class="cls-3" d="M38.76,32.27V42.2H35.87V32.27H33.56V29.88h7.62v2.39Z"/><path class="cls-3" d="M47.35,42.2a6.08,6.08,0,0,1-.22-1.7c0-.54,0-1,0-1.26,0-1.43-.28-2-1.36-2h-.59V42.2H42.36V29.88h3.25c1.64,0,2.74.07,3.47.66a3.08,3.08,0,0,1,1.05,2.57,3.09,3.09,0,0,1-1.52,3C50,36.66,50,37.48,50,38.93s-.07,2.65.7,3.27ZM45.58,32l-.36,0v3l.36,0c1.18,0,1.63-.43,1.63-1.58S46.76,32,45.58,32Z"/><path class="cls-3" d="M59.28,40.89a3.78,3.78,0,0,1-3.43,1.61,3.78,3.78,0,0,1-3.44-1.61c-.61-.93-.69-2.52-.69-4.85s.08-3.92.69-4.85a3.78,3.78,0,0,1,3.44-1.61,3.76,3.76,0,0,1,3.43,1.61c.62.95.7,2.54.7,4.85S59.9,39.94,59.28,40.89Zm-2.25-6c0-2,0-3-1.2-3s-1.17,1-1.17,3v2.23c0,2,0,3,1.19,3s1.18-1,1.18-3Z"/><path class="cls-3" d="M66.72,42.2a6.08,6.08,0,0,1-.22-1.7c0-.54,0-1,0-1.26,0-1.43-.28-2-1.36-2h-.59V42.2H61.73V29.88H65c1.64,0,2.74.07,3.47.66a3,3,0,0,1,1,2.57,3.09,3.09,0,0,1-1.52,3c1.34.59,1.36,1.41,1.41,2.86s-.07,2.65.7,3.27ZM65,32l-.36,0v3L65,35c1.18,0,1.64-.43,1.64-1.58S66.13,32,65,32Z"/><path class="cls-3" d="M71.34,42.2V29.88H78v2.39H74.21v2.26h3.54V37H74.21V39.7H78v2.5Z"/><path class="cls-3" d="M83.71,42.5a3.77,3.77,0,0,1-3.44-1.61c-.61-.93-.69-2.52-.69-4.85s.08-3.92.69-4.85a3.75,3.75,0,0,1,3.39-1.61c2.71,0,4,1.51,4,4.5v.11h-2.8c0-1.59-.3-2.28-1.2-2.28-1.19,0-1.21,1.18-1.21,3.9V36c0,2.89,0,4.15,1.21,4.15,1,0,1.16-.67,1.16-2.21v-.55h2.84c0,.22,0,.41,0,.63C87.73,41,86.45,42.5,83.71,42.5Z"/><path class="cls-3" d="M94,37V42.2H91V37l-2.83-7.1h3.1l1.19,3.9,1.2-3.9h3.13Z"/><path class="cls-3" d="M101.57,42.5a3.79,3.79,0,0,1-3.44-1.61c-.6-.93-.69-2.52-.69-4.85s.09-3.92.69-4.85a3.76,3.76,0,0,1,3.4-1.61c2.7,0,4,1.51,4,4.5v.11h-2.8c0-1.59-.29-2.28-1.2-2.28-1.19,0-1.21,1.18-1.21,3.9V36c0,2.89,0,4.15,1.21,4.15,1,0,1.17-.67,1.17-2.21v-.55h2.83c0,.22,0,.41,0,.63C105.59,41,104.31,42.5,101.57,42.5Z"/><path class="cls-3" d="M107.46,42.2V29.88h2.88v9.83h3.46V42.2Z"/><path class="cls-3" d="M115.08,42.2V29.88H118V42.2Z"/><path class="cls-3" d="M124.63,42.2l-2.41-7.83a52.13,52.13,0,0,1,.33,5.75V42.2H120V29.88h3l2.39,7.6c-.18-2.44-.27-4.32-.27-5.67V29.88h2.57V42.2Z"/><path class="cls-3" d="M135.25,42.2l-.13-.77a2.62,2.62,0,0,1-2.14,1,3.28,3.28,0,0,1-2.5-1.08c-1-1.1-1.06-2.84-1.06-5.46,0-2.31.18-3.87.69-4.67a3.7,3.7,0,0,1,3.36-1.63c2.42,0,3.65,1.33,3.65,3.94,0,.15,0,.29,0,.46h-2.73v-.15c0-1.36-.25-2-1-2-1,0-1.06,1-1.06,3.18v2.06c0,2.16,0,3.13,1,3.13.8,0,1.12-.64,1.12-2,0-.2,0-.39,0-.62h-1.13V35.45h3.92V42.2Z"/></g></g></g></svg>
